<?xml version="1.0" encoding="UTF-8" standalone="no"?>
<!DOCTYPE svg PUBLIC "-//W3C//DTD SVG 1.1//EN"
 "http://www.w3.org/Graphics/SVG/1.1/DTD/svg11.dtd">
<!-- Generated by graphviz version 2.43.0 (0)
 -->
<!-- Title: actuator_utils.cpp Pages: 1 -->
<!--zoomable 408 -->
<svg id="main" version="1.1" xmlns="http://www.w3.org/2000/svg" xmlns:xlink="http://www.w3.org/1999/xlink" xml:space="preserve" onload="init(evt)">
<style type="text/css"><![CDATA[
.edge:hover path { stroke: red; }
.edge:hover polygon { stroke: red; fill: red; }
]]></style>
<script type="text/javascript"><![CDATA[
var edges = document.getElementsByTagName('g');
if (edges && edges.length) {
  for (var i=0;i<edges.length;i++) {
    if (edges[i].id.substr(0,4)=='edge') {
      edges[i].setAttribute('class','edge');
    }
  }
}
]]></script>
        <defs>
                <circle id="rim" cx="0" cy="0" r="7"/>
                <circle id="rim2" cx="0" cy="0" r="3.5"/>
                <g id="zoomPlus">
                        <use xlink:href="#rim" fill="#404040">
                                <set attributeName="fill" to="#808080" begin="zoomplus.mouseover" end="zoomplus.mouseout"/>
                        </use>
                        <path d="M-4,0h8M0,-4v8" fill="none" stroke="white" stroke-width="1.5" pointer-events="none"/>
                </g>
                <g id="zoomMin">
                        <use xlink:href="#rim" fill="#404040">
                                <set attributeName="fill" to="#808080" begin="zoomminus.mouseover" end="zoomminus.mouseout"/>
                        </use>
                        <path d="M-4,0h8" fill="none" stroke="white" stroke-width="1.5" pointer-events="none"/>
                </g>
                <g id="dirArrow">
                        <path fill="none" stroke="white" stroke-width="1.5" d="M0,-3.0v7 M-2.5,-0.5L0,-3.0L2.5,-0.5"/>
                </g>
               <g id="resetDef">
                       <use xlink:href="#rim2" fill="#404040">
                               <set attributeName="fill" to="#808080" begin="reset.mouseover" end="reset.mouseout"/>
                       </use>
               </g>
        </defs>

<script type="text/javascript">
var viewWidth = 957;
var viewHeight = 408;
var sectionId = 'dynsection-0';
</script>
<script xlink:href="svgpan.js"/>
<svg id="graph" class="graph">
<g id="viewport">
<title>actuator_utils.cpp</title>
<polygon fill="white" stroke="transparent" points="-4,4 -4,-404 953,-404 953,4 -4,4"/>
<!-- Node1 -->
<g id="node1" class="node">
<title>Node1</title>
<g id="a_node1"><a xlink:title=" ">
<polygon fill="#bfbfbf" stroke="black" points="493,-380.5 493,-399.5 597,-399.5 597,-380.5 493,-380.5"/>
<text text-anchor="middle" x="545" y="-387.5" font-family="Helvetica,sans-Serif" font-size="10.00">actuator_utils.cpp</text>
</a>
</g>
</g>
<!-- Node2 -->
<g id="node2" class="node">
<title>Node2</title>
<g id="a_node2"><a xlink:href="actuator__utils_8_h.html" target="_top" xlink:title=" ">
<polygon fill="white" stroke="black" points="493,-179.5 493,-209.5 633,-209.5 633,-179.5 493,-179.5"/>
<text text-anchor="start" x="501" y="-197.5" font-family="Helvetica,sans-Serif" font-size="10.00">amr&#45;wind/wind_energy</text>
<text text-anchor="middle" x="563" y="-186.5" font-family="Helvetica,sans-Serif" font-size="10.00">/actuator/actuator_utils.H</text>
</a>
</g>
</g>
<!-- Node1&#45;&gt;Node2 -->
<g id="edge1" class="edge">
<title>Node1&#45;&gt;Node2</title>
<path fill="none" stroke="midnightblue" d="M534.89,-380.4C509.61,-357.82 447.66,-295.21 476,-246 483.93,-232.22 497.23,-221.85 511.07,-214.22"/>
<polygon fill="midnightblue" stroke="midnightblue" points="512.86,-217.23 520.19,-209.58 509.69,-210.99 512.86,-217.23"/>
</g>
<!-- Node15 -->
<g id="node15" class="node">
<title>Node15</title>
<g id="a_node15"><a xlink:href="actuator__types_8_h.html" target="_top" xlink:title=" ">
<polygon fill="white" stroke="black" points="561,-313.5 561,-343.5 707,-343.5 707,-313.5 561,-313.5"/>
<text text-anchor="start" x="569" y="-331.5" font-family="Helvetica,sans-Serif" font-size="10.00">amr&#45;wind/wind_energy</text>
<text text-anchor="middle" x="634" y="-320.5" font-family="Helvetica,sans-Serif" font-size="10.00">/actuator/actuator_types.H</text>
</a>
</g>
</g>
<!-- Node1&#45;&gt;Node15 -->
<g id="edge20" class="edge">
<title>Node1&#45;&gt;Node15</title>
<path fill="none" stroke="midnightblue" d="M557.75,-380.48C569.92,-372.34 588.69,-359.79 604.56,-349.18"/>
<polygon fill="midnightblue" stroke="midnightblue" points="606.66,-351.99 613.02,-343.52 602.77,-346.17 606.66,-351.99"/>
</g>
<!-- Node3 -->
<g id="node3" class="node">
<title>Node3</title>
<g id="a_node3"><a xlink:href="vector_8_h.html" target="_top" xlink:title=" ">
<polygon fill="white" stroke="black" points="147.5,-123.5 147.5,-142.5 292.5,-142.5 292.5,-123.5 147.5,-123.5"/>
<text text-anchor="middle" x="220" y="-130.5" font-family="Helvetica,sans-Serif" font-size="10.00">amr&#45;wind/core/vs/vector.H</text>
</a>
</g>
</g>
<!-- Node2&#45;&gt;Node3 -->
<g id="edge2" class="edge">
<title>Node2&#45;&gt;Node3</title>
<path fill="none" stroke="midnightblue" d="M492.76,-181.32C429.77,-170.39 338.38,-154.53 279.06,-144.25"/>
<polygon fill="midnightblue" stroke="midnightblue" points="279.55,-140.78 269.1,-142.52 278.36,-147.68 279.55,-140.78"/>
</g>
<!-- Node10 -->
<g id="node10" class="node">
<title>Node10</title>
<g id="a_node10"><a xlink:title=" ">
<polygon fill="white" stroke="#bfbfbf" points="401.5,-0.5 401.5,-19.5 448.5,-19.5 448.5,-0.5 401.5,-0.5"/>
<text text-anchor="middle" x="425" y="-7.5" font-family="Helvetica,sans-Serif" font-size="10.00">cmath</text>
</a>
</g>
</g>
<!-- Node2&#45;&gt;Node10 -->
<g id="edge18" class="edge">
<title>Node2&#45;&gt;Node10</title>
<path fill="none" stroke="midnightblue" d="M563.01,-179.21C562.29,-152 557,-92.27 526,-56 508.69,-35.75 480.48,-24.23 458.26,-17.93"/>
<polygon fill="midnightblue" stroke="midnightblue" points="459.1,-14.53 448.54,-15.39 457.33,-21.3 459.1,-14.53"/>
</g>
<!-- Node11 -->
<g id="node11" class="node">
<title>Node11</title>
<g id="a_node11"><a xlink:href="trig__ops_8_h.html" target="_top" xlink:title=" ">
<polygon fill="white" stroke="black" points="413.5,-56.5 413.5,-86.5 516.5,-86.5 516.5,-56.5 413.5,-56.5"/>
<text text-anchor="start" x="421.5" y="-74.5" font-family="Helvetica,sans-Serif" font-size="10.00">amr&#45;wind/utilities</text>
<text text-anchor="middle" x="465" y="-63.5" font-family="Helvetica,sans-Serif" font-size="10.00">/trig_ops.H</text>
</a>
</g>
</g>
<!-- Node2&#45;&gt;Node11 -->
<g id="edge11" class="edge">
<title>Node2&#45;&gt;Node11</title>
<path fill="none" stroke="midnightblue" d="M551.37,-179.14C534.5,-158.31 503.08,-119.51 483.14,-94.9"/>
<polygon fill="midnightblue" stroke="midnightblue" points="485.63,-92.4 476.61,-86.84 480.19,-96.81 485.63,-92.4"/>
</g>
<!-- Node12 -->
<g id="node12" class="node">
<title>Node12</title>
<g id="a_node12"><a xlink:title=" ">
<polygon fill="white" stroke="#bfbfbf" points="629,-123.5 629,-142.5 739,-142.5 739,-123.5 629,-123.5"/>
<text text-anchor="middle" x="684" y="-130.5" font-family="Helvetica,sans-Serif" font-size="10.00">AMReX_AmrCore.H</text>
</a>
</g>
</g>
<!-- Node2&#45;&gt;Node12 -->
<g id="edge15" class="edge">
<title>Node2&#45;&gt;Node12</title>
<path fill="none" stroke="midnightblue" d="M591.68,-179.4C611.52,-169.64 637.76,-156.74 657.19,-147.18"/>
<polygon fill="midnightblue" stroke="midnightblue" points="658.96,-150.21 666.39,-142.66 655.88,-143.93 658.96,-150.21"/>
</g>
<!-- Node13 -->
<g id="node13" class="node">
<title>Node13</title>
<g id="a_node13"><a xlink:href="tensor__ops_8_h.html" target="_top" xlink:title=" ">
<polygon fill="white" stroke="black" points="611.5,-56.5 611.5,-86.5 714.5,-86.5 714.5,-56.5 611.5,-56.5"/>
<text text-anchor="start" x="619.5" y="-74.5" font-family="Helvetica,sans-Serif" font-size="10.00">amr&#45;wind/utilities</text>
<text text-anchor="middle" x="663" y="-63.5" font-family="Helvetica,sans-Serif" font-size="10.00">/tensor_ops.H</text>
</a>
</g>
</g>
<!-- Node2&#45;&gt;Node13 -->
<g id="edge16" class="edge">
<title>Node2&#45;&gt;Node13</title>
<path fill="none" stroke="midnightblue" d="M574.25,-179.37C585.67,-165.07 603.92,-142.38 620,-123 627.88,-113.5 636.7,-103.1 644.29,-94.23"/>
<polygon fill="midnightblue" stroke="midnightblue" points="647.01,-96.44 650.86,-86.57 641.69,-91.88 647.01,-96.44"/>
</g>
<!-- Node14 -->
<g id="node14" class="node">
<title>Node14</title>
<g id="a_node14"><a xlink:title=" ">
<polygon fill="white" stroke="#bfbfbf" points="757,-123.5 757,-142.5 789,-142.5 789,-123.5 757,-123.5"/>
<text text-anchor="middle" x="773" y="-130.5" font-family="Helvetica,sans-Serif" font-size="10.00">set</text>
</a>
</g>
</g>
<!-- Node2&#45;&gt;Node14 -->
<g id="edge19" class="edge">
<title>Node2&#45;&gt;Node14</title>
<path fill="none" stroke="midnightblue" d="M619.2,-179.39C653.74,-170.44 699.05,-158.19 747.25,-143.06"/>
<polygon fill="midnightblue" stroke="midnightblue" points="748.45,-146.35 756.93,-140 746.34,-139.68 748.45,-146.35"/>
</g>
<!-- Node4 -->
<g id="node4" class="node">
<title>Node4</title>
<g id="a_node4"><a xlink:title=" ">
<polygon fill="white" stroke="#bfbfbf" points="579.5,-0.5 579.5,-19.5 666.5,-19.5 666.5,-0.5 579.5,-0.5"/>
<text text-anchor="middle" x="623" y="-7.5" font-family="Helvetica,sans-Serif" font-size="10.00">AMReX_Gpu.H</text>
</a>
</g>
</g>
<!-- Node3&#45;&gt;Node4 -->
<g id="edge3" class="edge">
<title>Node3&#45;&gt;Node4</title>
<path fill="none" stroke="midnightblue" d="M240.55,-123.45C287.68,-103.86 399.83,-57.28 404,-56 459.26,-39.08 524.33,-26.62 569.1,-19.15"/>
<polygon fill="midnightblue" stroke="midnightblue" points="569.88,-22.57 579.18,-17.5 568.74,-15.66 569.88,-22.57"/>
</g>
<!-- Node5 -->
<g id="node5" class="node">
<title>Node5</title>
<g id="a_node5"><a xlink:href="vstraits_8_h.html" target="_top" xlink:title=" ">
<polygon fill="white" stroke="black" points="0,-62 0,-81 152,-81 152,-62 0,-62"/>
<text text-anchor="middle" x="76" y="-69" font-family="Helvetica,sans-Serif" font-size="10.00">amr&#45;wind/core/vs/vstraits.H</text>
</a>
</g>
</g>
<!-- Node3&#45;&gt;Node5 -->
<g id="edge4" class="edge">
<title>Node3&#45;&gt;Node5</title>
<path fill="none" stroke="midnightblue" d="M199.37,-123.48C174.88,-113.36 133.85,-96.4 105.89,-84.85"/>
<polygon fill="midnightblue" stroke="midnightblue" points="107.17,-81.59 96.59,-81.01 104.5,-88.06 107.17,-81.59"/>
</g>
<!-- Node8 -->
<g id="node8" class="node">
<title>Node8</title>
<g id="a_node8"><a xlink:href="vector_i_8_h.html" target="_top" xlink:title=" ">
<polygon fill="white" stroke="black" points="170.5,-62 170.5,-81 319.5,-81 319.5,-62 170.5,-62"/>
<text text-anchor="middle" x="245" y="-69" font-family="Helvetica,sans-Serif" font-size="10.00">amr&#45;wind/core/vs/vectorI.H</text>
</a>
</g>
</g>
<!-- Node3&#45;&gt;Node8 -->
<g id="edge7" class="edge">
<title>Node3&#45;&gt;Node8</title>
<path fill="none" stroke="midnightblue" d="M218.68,-123.48C220.45,-114.73 225.84,-100.87 231.53,-89.81"/>
<polygon fill="midnightblue" stroke="midnightblue" points="234.63,-91.43 236.53,-81.01 228.55,-87.98 234.63,-91.43"/>
</g>
<!-- Node6 -->
<g id="node6" class="node">
<title>Node6</title>
<g id="a_node6"><a xlink:title=" ">
<polygon fill="white" stroke="#bfbfbf" points="49,-0.5 49,-19.5 93,-19.5 93,-0.5 49,-0.5"/>
<text text-anchor="middle" x="71" y="-7.5" font-family="Helvetica,sans-Serif" font-size="10.00">limits</text>
</a>
</g>
</g>
<!-- Node5&#45;&gt;Node6 -->
<g id="edge5" class="edge">
<title>Node5&#45;&gt;Node6</title>
<path fill="none" stroke="midnightblue" d="M75.28,-61.98C74.58,-53.58 73.48,-40.48 72.57,-29.66"/>
<polygon fill="midnightblue" stroke="midnightblue" points="76.04,-29.18 71.72,-19.51 69.06,-29.77 76.04,-29.18"/>
</g>
<!-- Node7 -->
<g id="node7" class="node">
<title>Node7</title>
<g id="a_node7"><a xlink:title=" ">
<polygon fill="white" stroke="#bfbfbf" points="111,-0.5 111,-19.5 203,-19.5 203,-0.5 111,-0.5"/>
<text text-anchor="middle" x="157" y="-7.5" font-family="Helvetica,sans-Serif" font-size="10.00">AMReX_REAL.H</text>
</a>
</g>
</g>
<!-- Node5&#45;&gt;Node7 -->
<g id="edge6" class="edge">
<title>Node5&#45;&gt;Node7</title>
<path fill="none" stroke="midnightblue" d="M87.61,-61.98C100.48,-52.52 121.47,-37.1 137.01,-25.69"/>
<polygon fill="midnightblue" stroke="midnightblue" points="139.43,-28.25 145.42,-19.51 135.28,-22.61 139.43,-28.25"/>
</g>
<!-- Node8&#45;&gt;Node3 -->
<g id="edge10" class="edge">
<title>Node8&#45;&gt;Node3</title>
<path fill="none" stroke="midnightblue" d="M246.32,-81.01C244.56,-89.75 239.17,-103.61 233.48,-114.67"/>
<polygon fill="midnightblue" stroke="midnightblue" points="230.37,-113.05 228.48,-123.48 236.46,-116.51 230.37,-113.05"/>
</g>
<!-- Node9 -->
<g id="node9" class="node">
<title>Node9</title>
<g id="a_node9"><a xlink:title=" ">
<polygon fill="white" stroke="#bfbfbf" points="221.5,-0.5 221.5,-19.5 278.5,-19.5 278.5,-0.5 221.5,-0.5"/>
<text text-anchor="middle" x="250" y="-7.5" font-family="Helvetica,sans-Serif" font-size="10.00">ostream</text>
</a>
</g>
</g>
<!-- Node8&#45;&gt;Node9 -->
<g id="edge8" class="edge">
<title>Node8&#45;&gt;Node9</title>
<path fill="none" stroke="midnightblue" d="M245.72,-61.98C246.42,-53.58 247.52,-40.48 248.43,-29.66"/>
<polygon fill="midnightblue" stroke="midnightblue" points="251.94,-29.77 249.28,-19.51 244.96,-29.18 251.94,-29.77"/>
</g>
<!-- Node8&#45;&gt;Node10 -->
<g id="edge9" class="edge">
<title>Node8&#45;&gt;Node10</title>
<path fill="none" stroke="midnightblue" d="M270.79,-61.98C302.55,-51.48 356.58,-33.62 391.52,-22.07"/>
<polygon fill="midnightblue" stroke="midnightblue" points="392.87,-25.31 401.27,-18.85 390.67,-18.66 392.87,-25.31"/>
</g>
<!-- Node11&#45;&gt;Node4 -->
<g id="edge14" class="edge">
<title>Node11&#45;&gt;Node4</title>
<path fill="none" stroke="midnightblue" d="M502.44,-56.4C529.19,-46.33 564.82,-32.91 590.4,-23.28"/>
<polygon fill="midnightblue" stroke="midnightblue" points="591.88,-26.46 600.01,-19.66 589.42,-19.91 591.88,-26.46"/>
</g>
<!-- Node11&#45;&gt;Node7 -->
<g id="edge13" class="edge">
<title>Node11&#45;&gt;Node7</title>
<path fill="none" stroke="midnightblue" d="M413.45,-60.54C357.39,-49.71 268.19,-32.48 211.13,-21.46"/>
<polygon fill="midnightblue" stroke="midnightblue" points="211.7,-18 201.22,-19.54 210.37,-24.88 211.7,-18"/>
</g>
<!-- Node11&#45;&gt;Node10 -->
<g id="edge12" class="edge">
<title>Node11&#45;&gt;Node10</title>
<path fill="none" stroke="midnightblue" d="M455.52,-56.4C449.83,-47.93 442.55,-37.1 436.52,-28.14"/>
<polygon fill="midnightblue" stroke="midnightblue" points="439.3,-26 430.82,-19.66 433.49,-29.91 439.3,-26"/>
</g>
<!-- Node13&#45;&gt;Node4 -->
<g id="edge17" class="edge">
<title>Node13&#45;&gt;Node4</title>
<path fill="none" stroke="midnightblue" d="M653.52,-56.4C647.83,-47.93 640.55,-37.1 634.52,-28.14"/>
<polygon fill="midnightblue" stroke="midnightblue" points="637.3,-26 628.82,-19.66 631.49,-29.91 637.3,-26"/>
</g>
<!-- Node15&#45;&gt;Node4 -->
<g id="edge35" class="edge">
<title>Node15&#45;&gt;Node4</title>
<path fill="none" stroke="midnightblue" d="M707.06,-327.46C800.11,-323.12 949,-299.86 949,-195.5 949,-195.5 949,-195.5 949,-132 949,-74.61 769.19,-35.73 676.65,-19.51"/>
<polygon fill="midnightblue" stroke="midnightblue" points="677.08,-16.03 666.63,-17.79 675.89,-22.93 677.08,-16.03"/>
</g>
<!-- Node15&#45;&gt;Node14 -->
<g id="edge37" class="edge">
<title>Node15&#45;&gt;Node14</title>
<path fill="none" stroke="midnightblue" d="M644.02,-313.35C650.75,-303.46 659.55,-289.79 666,-277 687.05,-235.29 674.57,-215.28 704,-179 715.75,-164.51 733.44,-153.11 747.96,-145.4"/>
<polygon fill="midnightblue" stroke="midnightblue" points="749.6,-148.5 756.96,-140.88 746.45,-142.24 749.6,-148.5"/>
</g>
<!-- Node16 -->
<g id="node16" class="node">
<title>Node16</title>
<g id="a_node16"><a xlink:href="_slice_8_h.html" target="_top" xlink:title=" ">
<polygon fill="white" stroke="black" points="754,-252 754,-271 878,-271 878,-252 754,-252"/>
<text text-anchor="middle" x="816" y="-259" font-family="Helvetica,sans-Serif" font-size="10.00">amr&#45;wind/core/Slice.H</text>
</a>
</g>
</g>
<!-- Node15&#45;&gt;Node16 -->
<g id="edge21" class="edge">
<title>Node15&#45;&gt;Node16</title>
<path fill="none" stroke="midnightblue" d="M673.49,-313.4C706.13,-301.74 751.96,-285.37 782.75,-274.38"/>
<polygon fill="midnightblue" stroke="midnightblue" points="783.94,-277.67 792.18,-271.01 781.59,-271.07 783.94,-277.67"/>
</g>
<!-- Node19 -->
<g id="node19" class="node">
<title>Node19</title>
<g id="a_node19"><a xlink:href="vector__space_8_h.html" target="_top" xlink:title=" ">
<polygon fill="white" stroke="black" points="293.5,-246.5 293.5,-276.5 428.5,-276.5 428.5,-246.5 293.5,-246.5"/>
<text text-anchor="start" x="301.5" y="-264.5" font-family="Helvetica,sans-Serif" font-size="10.00">amr&#45;wind/core/vs/vector</text>
<text text-anchor="middle" x="361" y="-253.5" font-family="Helvetica,sans-Serif" font-size="10.00">_space.H</text>
</a>
</g>
</g>
<!-- Node15&#45;&gt;Node19 -->
<g id="edge25" class="edge">
<title>Node15&#45;&gt;Node19</title>
<path fill="none" stroke="midnightblue" d="M575.1,-313.48C532.55,-303.34 474.93,-289.63 430.19,-278.97"/>
<polygon fill="midnightblue" stroke="midnightblue" points="430.8,-275.52 420.27,-276.61 429.18,-282.33 430.8,-275.52"/>
</g>
<!-- Node22 -->
<g id="node22" class="node">
<title>Node22</title>
<g id="a_node22"><a xlink:title=" ">
<polygon fill="white" stroke="#bfbfbf" points="485,-252 485,-271 593,-271 593,-252 485,-252"/>
<text text-anchor="middle" x="539" y="-259" font-family="Helvetica,sans-Serif" font-size="10.00">AMReX_RealBox.H</text>
</a>
</g>
</g>
<!-- Node15&#45;&gt;Node22 -->
<g id="edge36" class="edge">
<title>Node15&#45;&gt;Node22</title>
<path fill="none" stroke="midnightblue" d="M613.39,-313.4C597.6,-302.6 575.91,-287.76 560.03,-276.89"/>
<polygon fill="midnightblue" stroke="midnightblue" points="561.66,-273.77 551.43,-271.01 557.71,-279.54 561.66,-273.77"/>
</g>
<!-- Node23 -->
<g id="node23" class="node">
<title>Node23</title>
<g id="a_node23"><a xlink:title=" ">
<polygon fill="white" stroke="#bfbfbf" points="611.5,-252 611.5,-271 656.5,-271 656.5,-252 611.5,-252"/>
<text text-anchor="middle" x="634" y="-259" font-family="Helvetica,sans-Serif" font-size="10.00">utility</text>
</a>
</g>
</g>
<!-- Node15&#45;&gt;Node23 -->
<g id="edge38" class="edge">
<title>Node15&#45;&gt;Node23</title>
<path fill="none" stroke="midnightblue" d="M634,-313.4C634,-304.06 634,-291.71 634,-281.52"/>
<polygon fill="midnightblue" stroke="midnightblue" points="637.5,-281.19 634,-271.19 630.5,-281.19 637.5,-281.19"/>
</g>
<!-- Node16&#45;&gt;Node4 -->
<g id="edge24" class="edge">
<title>Node16&#45;&gt;Node4</title>
<path fill="none" stroke="midnightblue" d="M839.62,-251.99C857.57,-244.13 881,-230.52 892,-210 898.51,-197.86 898.23,-191.29 892,-179 846.61,-89.51 729.51,-42.29 665.81,-22.51"/>
<polygon fill="midnightblue" stroke="midnightblue" points="666.65,-19.11 656.06,-19.57 664.63,-25.81 666.65,-19.11"/>
</g>
<!-- Node17 -->
<g id="node17" class="node">
<title>Node17</title>
<g id="a_node17"><a xlink:title=" ">
<polygon fill="white" stroke="#bfbfbf" points="829.5,-185 829.5,-204 882.5,-204 882.5,-185 829.5,-185"/>
<text text-anchor="middle" x="856" y="-192" font-family="Helvetica,sans-Serif" font-size="10.00">iterator</text>
</a>
</g>
</g>
<!-- Node16&#45;&gt;Node17 -->
<g id="edge22" class="edge">
<title>Node16&#45;&gt;Node17</title>
<path fill="none" stroke="midnightblue" d="M821.39,-251.73C827.51,-241.79 837.64,-225.34 845.36,-212.79"/>
<polygon fill="midnightblue" stroke="midnightblue" points="848.43,-214.48 850.69,-204.13 842.47,-210.81 848.43,-214.48"/>
</g>
<!-- Node18 -->
<g id="node18" class="node">
<title>Node18</title>
<g id="a_node18"><a xlink:title=" ">
<polygon fill="white" stroke="#bfbfbf" points="713,-185 713,-204 811,-204 811,-185 713,-185"/>
<text text-anchor="middle" x="762" y="-192" font-family="Helvetica,sans-Serif" font-size="10.00">AMReX_Vector.H</text>
</a>
</g>
</g>
<!-- Node16&#45;&gt;Node18 -->
<g id="edge23" class="edge">
<title>Node16&#45;&gt;Node18</title>
<path fill="none" stroke="midnightblue" d="M808.72,-251.73C800.3,-241.6 786.25,-224.69 775.75,-212.06"/>
<polygon fill="midnightblue" stroke="midnightblue" points="778.25,-209.58 769.17,-204.13 772.87,-214.06 778.25,-209.58"/>
</g>
<!-- Node19&#45;&gt;Node3 -->
<g id="edge26" class="edge">
<title>Node19&#45;&gt;Node3</title>
<path fill="none" stroke="midnightblue" d="M339.36,-246.49C325.09,-236.88 306.29,-223.47 291,-210 269.74,-191.27 247.86,-166.94 234.11,-150.92"/>
<polygon fill="midnightblue" stroke="midnightblue" points="236.51,-148.33 227.37,-142.96 231.17,-152.85 236.51,-148.33"/>
</g>
<!-- Node20 -->
<g id="node20" class="node">
<title>Node20</title>
<g id="a_node20"><a xlink:href="tensor_8_h.html" target="_top" xlink:title=" ">
<polygon fill="white" stroke="black" points="300.5,-185 300.5,-204 445.5,-204 445.5,-185 300.5,-185"/>
<text text-anchor="middle" x="373" y="-192" font-family="Helvetica,sans-Serif" font-size="10.00">amr&#45;wind/core/vs/tensor.H</text>
</a>
</g>
</g>
<!-- Node19&#45;&gt;Node20 -->
<g id="edge27" class="edge">
<title>Node19&#45;&gt;Node20</title>
<path fill="none" stroke="midnightblue" d="M363.6,-246.4C365.35,-236.96 367.66,-224.45 369.55,-214.19"/>
<polygon fill="midnightblue" stroke="midnightblue" points="373.02,-214.66 371.39,-204.19 366.14,-213.39 373.02,-214.66"/>
</g>
<!-- Node20&#45;&gt;Node3 -->
<g id="edge30" class="edge">
<title>Node20&#45;&gt;Node3</title>
<path fill="none" stroke="midnightblue" d="M351.08,-184.98C324.95,-174.81 281.09,-157.76 251.37,-146.2"/>
<polygon fill="midnightblue" stroke="midnightblue" points="252.47,-142.87 241.88,-142.51 249.93,-149.4 252.47,-142.87"/>
</g>
<!-- Node20&#45;&gt;Node4 -->
<g id="edge28" class="edge">
<title>Node20&#45;&gt;Node4</title>
<path fill="none" stroke="midnightblue" d="M391.9,-184.95C411.58,-175.72 442.98,-160.01 468,-143 522.31,-106.08 579.42,-53.23 606.67,-27.01"/>
<polygon fill="midnightblue" stroke="midnightblue" points="609.39,-29.25 614.13,-19.78 604.52,-24.23 609.39,-29.25"/>
</g>
<!-- Node20&#45;&gt;Node5 -->
<g id="edge29" class="edge">
<title>Node20&#45;&gt;Node5</title>
<path fill="none" stroke="midnightblue" d="M300.37,-189.72C251.61,-184.45 187.49,-172.03 138,-143 115.67,-129.9 97.18,-105.92 86.37,-89.6"/>
<polygon fill="midnightblue" stroke="midnightblue" points="89.23,-87.58 80.91,-81.02 83.32,-91.33 89.23,-87.58"/>
</g>
<!-- Node21 -->
<g id="node21" class="node">
<title>Node21</title>
<g id="a_node21"><a xlink:href="tensor_i_8_h.html" target="_top" xlink:title=" ">
<polygon fill="white" stroke="black" points="310.5,-123.5 310.5,-142.5 459.5,-142.5 459.5,-123.5 310.5,-123.5"/>
<text text-anchor="middle" x="385" y="-130.5" font-family="Helvetica,sans-Serif" font-size="10.00">amr&#45;wind/core/vs/tensorI.H</text>
</a>
</g>
</g>
<!-- Node20&#45;&gt;Node21 -->
<g id="edge31" class="edge">
<title>Node20&#45;&gt;Node21</title>
<path fill="none" stroke="midnightblue" d="M369.82,-184.98C369.68,-176.4 371.94,-162.93 375.12,-151.98"/>
<polygon fill="midnightblue" stroke="midnightblue" points="378.43,-153.1 378.39,-142.51 371.82,-150.82 378.43,-153.1"/>
</g>
<!-- Node21&#45;&gt;Node10 -->
<g id="edge32" class="edge">
<title>Node21&#45;&gt;Node10</title>
<path fill="none" stroke="midnightblue" d="M386.59,-123.41C389.35,-109.16 395.54,-79.84 404,-56 407.28,-46.76 411.79,-36.84 415.79,-28.68"/>
<polygon fill="midnightblue" stroke="midnightblue" points="418.91,-30.26 420.3,-19.75 412.67,-27.1 418.91,-30.26"/>
</g>
<!-- Node21&#45;&gt;Node11 -->
<g id="edge34" class="edge">
<title>Node21&#45;&gt;Node11</title>
<path fill="none" stroke="midnightblue" d="M396.46,-123.48C407.2,-115.49 423.65,-103.25 437.75,-92.77"/>
<polygon fill="midnightblue" stroke="midnightblue" points="440.21,-95.3 446.15,-86.52 436.03,-89.68 440.21,-95.3"/>
</g>
<!-- Node21&#45;&gt;Node20 -->
<g id="edge33" class="edge">
<title>Node21&#45;&gt;Node20</title>
<path fill="none" stroke="midnightblue" d="M388.18,-142.51C388.32,-151.07 386.06,-164.55 382.89,-175.5"/>
<polygon fill="midnightblue" stroke="midnightblue" points="379.57,-174.38 379.62,-184.98 386.19,-176.66 379.57,-174.38"/>
</g>
</g>
</svg>
        <g id="navigator" transform="translate(0 0)" fill="#404254">
                <rect fill="#f2f5e9" fill-opacity="0.5" stroke="#606060" stroke-width=".5" x="0" y="0" width="60" height="60"/>
                <use id="zoomplus" xlink:href="#zoomPlus" x="17" y="9" onmousedown="handleZoom(evt,'in')"/>
                <use id="zoomminus" xlink:href="#zoomMin" x="42" y="9" onmousedown="handleZoom(evt,'out')"/>
                <use id="reset" xlink:href="#resetDef" x="30" y="36" onmousedown="handleReset()"/>
                <g id="arrowUp" xlink:href="#dirArrow" transform="translate(30 24)" onmousedown="handlePan(0,-1)">
                  <use xlink:href="#rim" fill="#404040">
                        <set attributeName="fill" to="#808080" begin="arrowUp.mouseover" end="arrowUp.mouseout"/>
                  </use>
                  <path fill="none" stroke="white" stroke-width="1.5" d="M0,-3.0v7 M-2.5,-0.5L0,-3.0L2.5,-0.5"/>
                </g>
                <g id="arrowRight" xlink:href="#dirArrow" transform="rotate(90) translate(36 -43)" onmousedown="handlePan(1,0)">
                  <use xlink:href="#rim" fill="#404040">
                        <set attributeName="fill" to="#808080" begin="arrowRight.mouseover" end="arrowRight.mouseout"/>
                  </use>
                  <path fill="none" stroke="white" stroke-width="1.5" d="M0,-3.0v7 M-2.5,-0.5L0,-3.0L2.5,-0.5"/>
                </g>
                <g id="arrowDown" xlink:href="#dirArrow" transform="rotate(180) translate(-30 -48)" onmousedown="handlePan(0,1)">
                  <use xlink:href="#rim" fill="#404040">
                        <set attributeName="fill" to="#808080" begin="arrowDown.mouseover" end="arrowDown.mouseout"/>
                  </use>
                  <path fill="none" stroke="white" stroke-width="1.5" d="M0,-3.0v7 M-2.5,-0.5L0,-3.0L2.5,-0.5"/>
                </g>
                <g id="arrowLeft" xlink:href="#dirArrow" transform="rotate(270) translate(-36 17)" onmousedown="handlePan(-1,0)">
                  <use xlink:href="#rim" fill="#404040">
                        <set attributeName="fill" to="#808080" begin="arrowLeft.mouseover" end="arrowLeft.mouseout"/>
                  </use>
                  <path fill="none" stroke="white" stroke-width="1.5" d="M0,-3.0v7 M-2.5,-0.5L0,-3.0L2.5,-0.5"/>
                </g>
        </g>
        <svg viewBox="0 0 15 15" width="100%" height="30px" preserveAspectRatio="xMaxYMin meet">
         <g id="arrow_out" transform="scale(0.3 0.3)">
          <a xlink:href="actuator__utils_8cpp__incl_org.svg" target="_base">
           <rect id="button" ry="5" rx="5" y="6" x="6" height="38" width="38"
                fill="#f2f5e9" fill-opacity="0.5" stroke="#606060" stroke-width="1.0"/>
           <path id="arrow"
             d="M 11.500037,31.436501 C 11.940474,20.09759 22.043105,11.32322 32.158766,21.979434 L 37.068811,17.246167 C 37.068811,17.246167 37.088388,32 37.088388,32 L 22.160133,31.978069 C 22.160133,31.978069 26.997745,27.140456 26.997745,27.140456 C 18.528582,18.264221 13.291696,25.230495 11.500037,31.436501 z"
             style="fill:#404040;"/>
          </a>
         </g>
        </svg>
</svg>
