<?xml version="1.0" encoding="UTF-8" standalone="no"?>
<!DOCTYPE svg PUBLIC "-//W3C//DTD SVG 1.1//EN"
 "http://www.w3.org/Graphics/SVG/1.1/DTD/svg11.dtd">
<!-- Generated by graphviz version 2.43.0 (0)
 -->
<!-- Title: disk_spreading.H Pages: 1 -->
<!--zoomable 274 -->
<svg id="main" version="1.1" xmlns="http://www.w3.org/2000/svg" xmlns:xlink="http://www.w3.org/1999/xlink" xml:space="preserve" onload="init(evt)">
<style type="text/css"><![CDATA[
.edge:hover path { stroke: red; }
.edge:hover polygon { stroke: red; fill: red; }
]]></style>
<script type="text/javascript"><![CDATA[
var edges = document.getElementsByTagName('g');
if (edges && edges.length) {
  for (var i=0;i<edges.length;i++) {
    if (edges[i].id.substr(0,4)=='edge') {
      edges[i].setAttribute('class','edge');
    }
  }
}
]]></script>
        <defs>
                <circle id="rim" cx="0" cy="0" r="7"/>
                <circle id="rim2" cx="0" cy="0" r="3.5"/>
                <g id="zoomPlus">
                        <use xlink:href="#rim" fill="#404040">
                                <set attributeName="fill" to="#808080" begin="zoomplus.mouseover" end="zoomplus.mouseout"/>
                        </use>
                        <path d="M-4,0h8M0,-4v8" fill="none" stroke="white" stroke-width="1.5" pointer-events="none"/>
                </g>
                <g id="zoomMin">
                        <use xlink:href="#rim" fill="#404040">
                                <set attributeName="fill" to="#808080" begin="zoomminus.mouseover" end="zoomminus.mouseout"/>
                        </use>
                        <path d="M-4,0h8" fill="none" stroke="white" stroke-width="1.5" pointer-events="none"/>
                </g>
                <g id="dirArrow">
                        <path fill="none" stroke="white" stroke-width="1.5" d="M0,-3.0v7 M-2.5,-0.5L0,-3.0L2.5,-0.5"/>
                </g>
               <g id="resetDef">
                       <use xlink:href="#rim2" fill="#404040">
                               <set attributeName="fill" to="#808080" begin="reset.mouseover" end="reset.mouseout"/>
                       </use>
               </g>
        </defs>

<script type="text/javascript">
var viewWidth = 2273;
var viewHeight = 274;
var sectionId = 'dynsection-0';
</script>
<script xlink:href="svgpan.js"/>
<svg id="graph" class="graph">
<g id="viewport">
<title>disk_spreading.H</title>
<polygon fill="white" stroke="transparent" points="-4,4 -4,-270 2269.35,-270 2269.35,4 -4,4"/>
<!-- Node1 -->
<g id="node1" class="node">
<title>Node1</title>
<g id="a_node1"><a xlink:title=" ">
<polygon fill="#bfbfbf" stroke="black" points="889.5,-246.5 889.5,-265.5 990.5,-265.5 990.5,-246.5 889.5,-246.5"/>
<text text-anchor="middle" x="940" y="-253.5" font-family="Helvetica,sans-Serif" font-size="10.00">disk_spreading.H</text>
</a>
</g>
</g>
<!-- Node2 -->
<g id="node2" class="node">
<title>Node2</title>
<g id="a_node2"><a xlink:href="actuator__utils_8_h.html" target="_top" xlink:title=" ">
<polygon fill="white" stroke="black" points="482,-179.5 482,-209.5 622,-209.5 622,-179.5 482,-179.5"/>
<text text-anchor="start" x="490" y="-197.5" font-family="Helvetica,sans-Serif" font-size="10.00">amr&#45;wind/wind_energy</text>
<text text-anchor="middle" x="552" y="-186.5" font-family="Helvetica,sans-Serif" font-size="10.00">/actuator/actuator_utils.H</text>
</a>
</g>
</g>
<!-- Node1&#45;&gt;Node2 -->
<g id="edge1" class="edge">
<title>Node1&#45;&gt;Node2</title>
<path fill="none" stroke="midnightblue" d="M889.28,-247.22C823.91,-237.2 709.51,-219.65 632.28,-207.81"/>
<polygon fill="midnightblue" stroke="midnightblue" points="632.53,-204.31 622.11,-206.25 631.47,-211.23 632.53,-204.31"/>
</g>
<!-- Node15 -->
<g id="node15" class="node">
<title>Node15</title>
<g id="a_node15"><a xlink:href="_field_repo_8_h.html" target="_top" xlink:title=" ">
<polygon fill="white" stroke="black" points="1342.5,-185 1342.5,-204 1491.5,-204 1491.5,-185 1342.5,-185"/>
<text text-anchor="middle" x="1417" y="-192" font-family="Helvetica,sans-Serif" font-size="10.00">amr&#45;wind/core/FieldRepo.H</text>
</a>
</g>
</g>
<!-- Node1&#45;&gt;Node15 -->
<g id="edge20" class="edge">
<title>Node1&#45;&gt;Node15</title>
<path fill="none" stroke="midnightblue" d="M990.6,-248.69C1073.73,-238.32 1239.82,-217.6 1338.38,-205.31"/>
<polygon fill="midnightblue" stroke="midnightblue" points="1339.1,-208.74 1348.59,-204.03 1338.23,-201.8 1339.1,-208.74"/>
</g>
<!-- Node3 -->
<g id="node3" class="node">
<title>Node3</title>
<g id="a_node3"><a xlink:href="vector_8_h.html" target="_top" xlink:title=" ">
<polygon fill="white" stroke="black" points="136.5,-118 136.5,-137 281.5,-137 281.5,-118 136.5,-118"/>
<text text-anchor="middle" x="209" y="-125" font-family="Helvetica,sans-Serif" font-size="10.00">amr&#45;wind/core/vs/vector.H</text>
</a>
</g>
</g>
<!-- Node2&#45;&gt;Node3 -->
<g id="edge2" class="edge">
<title>Node2&#45;&gt;Node3</title>
<path fill="none" stroke="midnightblue" d="M481.76,-180.19C417.29,-167.97 323.06,-150.11 263.93,-138.91"/>
<polygon fill="midnightblue" stroke="midnightblue" points="264.51,-135.46 254.03,-137.03 263.21,-142.33 264.51,-135.46"/>
</g>
<!-- Node10 -->
<g id="node10" class="node">
<title>Node10</title>
<g id="a_node10"><a xlink:title=" ">
<polygon fill="white" stroke="#bfbfbf" points="467.5,-0.5 467.5,-19.5 514.5,-19.5 514.5,-0.5 467.5,-0.5"/>
<text text-anchor="middle" x="491" y="-7.5" font-family="Helvetica,sans-Serif" font-size="10.00">cmath</text>
</a>
</g>
</g>
<!-- Node2&#45;&gt;Node10 -->
<g id="edge18" class="edge">
<title>Node2&#45;&gt;Node10</title>
<path fill="none" stroke="midnightblue" d="M549.21,-179.48C545.8,-163.11 539.54,-135.29 532,-112 522.37,-82.26 508.09,-48.84 499.18,-28.88"/>
<polygon fill="midnightblue" stroke="midnightblue" points="502.37,-27.43 495.06,-19.76 495.99,-30.31 502.37,-27.43"/>
</g>
<!-- Node11 -->
<g id="node11" class="node">
<title>Node11</title>
<g id="a_node11"><a xlink:href="trig__ops_8_h.html" target="_top" xlink:title=" ">
<polygon fill="white" stroke="black" points="420.5,-112.5 420.5,-142.5 523.5,-142.5 523.5,-112.5 420.5,-112.5"/>
<text text-anchor="start" x="428.5" y="-130.5" font-family="Helvetica,sans-Serif" font-size="10.00">amr&#45;wind/utilities</text>
<text text-anchor="middle" x="472" y="-119.5" font-family="Helvetica,sans-Serif" font-size="10.00">/trig_ops.H</text>
</a>
</g>
</g>
<!-- Node2&#45;&gt;Node11 -->
<g id="edge11" class="edge">
<title>Node2&#45;&gt;Node11</title>
<path fill="none" stroke="midnightblue" d="M534.64,-179.4C523.74,-170.54 509.49,-158.96 497.34,-149.09"/>
<polygon fill="midnightblue" stroke="midnightblue" points="499.29,-146.17 489.32,-142.58 494.88,-151.6 499.29,-146.17"/>
</g>
<!-- Node12 -->
<g id="node12" class="node">
<title>Node12</title>
<g id="a_node12"><a xlink:title=" ">
<polygon fill="white" stroke="#bfbfbf" points="630,-118 630,-137 740,-137 740,-118 630,-118"/>
<text text-anchor="middle" x="685" y="-125" font-family="Helvetica,sans-Serif" font-size="10.00">AMReX_AmrCore.H</text>
</a>
</g>
</g>
<!-- Node2&#45;&gt;Node12 -->
<g id="edge15" class="edge">
<title>Node2&#45;&gt;Node12</title>
<path fill="none" stroke="midnightblue" d="M580.86,-179.4C603.89,-168.14 635.89,-152.5 658.32,-141.54"/>
<polygon fill="midnightblue" stroke="midnightblue" points="660.15,-144.54 667.59,-137.01 657.07,-138.25 660.15,-144.54"/>
</g>
<!-- Node13 -->
<g id="node13" class="node">
<title>Node13</title>
<g id="a_node13"><a xlink:href="tensor__ops_8_h.html" target="_top" xlink:title=" ">
<polygon fill="white" stroke="black" points="299.5,-112.5 299.5,-142.5 402.5,-142.5 402.5,-112.5 299.5,-112.5"/>
<text text-anchor="start" x="307.5" y="-130.5" font-family="Helvetica,sans-Serif" font-size="10.00">amr&#45;wind/utilities</text>
<text text-anchor="middle" x="351" y="-119.5" font-family="Helvetica,sans-Serif" font-size="10.00">/tensor_ops.H</text>
</a>
</g>
</g>
<!-- Node2&#45;&gt;Node13 -->
<g id="edge16" class="edge">
<title>Node2&#45;&gt;Node13</title>
<path fill="none" stroke="midnightblue" d="M508.39,-179.4C477.83,-169.52 436.82,-156.25 404.32,-145.74"/>
<polygon fill="midnightblue" stroke="midnightblue" points="405.12,-142.32 394.53,-142.58 402.97,-148.98 405.12,-142.32"/>
</g>
<!-- Node14 -->
<g id="node14" class="node">
<title>Node14</title>
<g id="a_node14"><a xlink:title=" ">
<polygon fill="white" stroke="#bfbfbf" points="580,-118 580,-137 612,-137 612,-118 580,-118"/>
<text text-anchor="middle" x="596" y="-125" font-family="Helvetica,sans-Serif" font-size="10.00">set</text>
</a>
</g>
</g>
<!-- Node2&#45;&gt;Node14 -->
<g id="edge19" class="edge">
<title>Node2&#45;&gt;Node14</title>
<path fill="none" stroke="midnightblue" d="M561.55,-179.4C568.27,-169.46 577.31,-156.11 584.44,-145.57"/>
<polygon fill="midnightblue" stroke="midnightblue" points="587.41,-147.44 590.11,-137.19 581.61,-143.51 587.41,-147.44"/>
</g>
<!-- Node4 -->
<g id="node4" class="node">
<title>Node4</title>
<g id="a_node4"><a xlink:title=" ">
<polygon fill="white" stroke="#bfbfbf" points="337.5,-56.5 337.5,-75.5 424.5,-75.5 424.5,-56.5 337.5,-56.5"/>
<text text-anchor="middle" x="381" y="-63.5" font-family="Helvetica,sans-Serif" font-size="10.00">AMReX_Gpu.H</text>
</a>
</g>
</g>
<!-- Node3&#45;&gt;Node4 -->
<g id="edge3" class="edge">
<title>Node3&#45;&gt;Node4</title>
<path fill="none" stroke="midnightblue" d="M233.64,-117.98C263.28,-107.72 313.18,-90.46 346.6,-78.9"/>
<polygon fill="midnightblue" stroke="midnightblue" points="348.1,-82.09 356.4,-75.51 345.81,-75.47 348.1,-82.09"/>
</g>
<!-- Node5 -->
<g id="node5" class="node">
<title>Node5</title>
<g id="a_node5"><a xlink:href="vstraits_8_h.html" target="_top" xlink:title=" ">
<polygon fill="white" stroke="black" points="0,-56.5 0,-75.5 152,-75.5 152,-56.5 0,-56.5"/>
<text text-anchor="middle" x="76" y="-63.5" font-family="Helvetica,sans-Serif" font-size="10.00">amr&#45;wind/core/vs/vstraits.H</text>
</a>
</g>
</g>
<!-- Node3&#45;&gt;Node5 -->
<g id="edge4" class="edge">
<title>Node3&#45;&gt;Node5</title>
<path fill="none" stroke="midnightblue" d="M189.94,-117.98C167.53,-107.95 130.09,-91.2 104.29,-79.65"/>
<polygon fill="midnightblue" stroke="midnightblue" points="105.58,-76.4 95.02,-75.51 102.72,-82.79 105.58,-76.4"/>
</g>
<!-- Node8 -->
<g id="node8" class="node">
<title>Node8</title>
<g id="a_node8"><a xlink:href="vector_i_8_h.html" target="_top" xlink:title=" ">
<polygon fill="white" stroke="black" points="170.5,-56.5 170.5,-75.5 319.5,-75.5 319.5,-56.5 170.5,-56.5"/>
<text text-anchor="middle" x="245" y="-63.5" font-family="Helvetica,sans-Serif" font-size="10.00">amr&#45;wind/core/vs/vectorI.H</text>
</a>
</g>
</g>
<!-- Node3&#45;&gt;Node8 -->
<g id="edge7" class="edge">
<title>Node3&#45;&gt;Node8</title>
<path fill="none" stroke="midnightblue" d="M209.26,-117.98C212.71,-109.05 220.92,-94.81 228.8,-83.64"/>
<polygon fill="midnightblue" stroke="midnightblue" points="231.71,-85.6 234.95,-75.51 226.13,-81.37 231.71,-85.6"/>
</g>
<!-- Node6 -->
<g id="node6" class="node">
<title>Node6</title>
<g id="a_node6"><a xlink:title=" ">
<polygon fill="white" stroke="#bfbfbf" points="49,-0.5 49,-19.5 93,-19.5 93,-0.5 49,-0.5"/>
<text text-anchor="middle" x="71" y="-7.5" font-family="Helvetica,sans-Serif" font-size="10.00">limits</text>
</a>
</g>
</g>
<!-- Node5&#45;&gt;Node6 -->
<g id="edge5" class="edge">
<title>Node5&#45;&gt;Node6</title>
<path fill="none" stroke="midnightblue" d="M75.17,-56.08C74.52,-49.01 73.58,-38.86 72.76,-29.99"/>
<polygon fill="midnightblue" stroke="midnightblue" points="76.22,-29.39 71.81,-19.75 69.25,-30.03 76.22,-29.39"/>
</g>
<!-- Node7 -->
<g id="node7" class="node">
<title>Node7</title>
<g id="a_node7"><a xlink:title=" ">
<polygon fill="white" stroke="#bfbfbf" points="111,-0.5 111,-19.5 203,-19.5 203,-0.5 111,-0.5"/>
<text text-anchor="middle" x="157" y="-7.5" font-family="Helvetica,sans-Serif" font-size="10.00">AMReX_REAL.H</text>
</a>
</g>
</g>
<!-- Node5&#45;&gt;Node7 -->
<g id="edge6" class="edge">
<title>Node5&#45;&gt;Node7</title>
<path fill="none" stroke="midnightblue" d="M89.01,-56.32C101.53,-47.98 120.68,-35.21 135.47,-25.35"/>
<polygon fill="midnightblue" stroke="midnightblue" points="137.64,-28.11 144.02,-19.65 133.76,-22.29 137.64,-28.11"/>
</g>
<!-- Node8&#45;&gt;Node3 -->
<g id="edge10" class="edge">
<title>Node8&#45;&gt;Node3</title>
<path fill="none" stroke="midnightblue" d="M244.75,-75.51C241.3,-84.43 233.1,-98.67 225.21,-109.84"/>
<polygon fill="midnightblue" stroke="midnightblue" points="222.3,-107.89 219.06,-117.98 227.88,-112.11 222.3,-107.89"/>
</g>
<!-- Node9 -->
<g id="node9" class="node">
<title>Node9</title>
<g id="a_node9"><a xlink:title=" ">
<polygon fill="white" stroke="#bfbfbf" points="221.5,-0.5 221.5,-19.5 278.5,-19.5 278.5,-0.5 221.5,-0.5"/>
<text text-anchor="middle" x="250" y="-7.5" font-family="Helvetica,sans-Serif" font-size="10.00">ostream</text>
</a>
</g>
</g>
<!-- Node8&#45;&gt;Node9 -->
<g id="edge8" class="edge">
<title>Node8&#45;&gt;Node9</title>
<path fill="none" stroke="midnightblue" d="M245.83,-56.08C246.48,-49.01 247.42,-38.86 248.24,-29.99"/>
<polygon fill="midnightblue" stroke="midnightblue" points="251.75,-30.03 249.19,-19.75 244.78,-29.39 251.75,-30.03"/>
</g>
<!-- Node8&#45;&gt;Node10 -->
<g id="edge9" class="edge">
<title>Node8&#45;&gt;Node10</title>
<path fill="none" stroke="midnightblue" d="M283.98,-56.44C331.87,-45.93 412.3,-28.28 457.52,-18.35"/>
<polygon fill="midnightblue" stroke="midnightblue" points="458.4,-21.74 467.42,-16.18 456.9,-14.9 458.4,-21.74"/>
</g>
<!-- Node11&#45;&gt;Node4 -->
<g id="edge14" class="edge">
<title>Node11&#45;&gt;Node4</title>
<path fill="none" stroke="midnightblue" d="M450.43,-112.4C436.12,-103.04 417.39,-90.79 402.99,-81.38"/>
<polygon fill="midnightblue" stroke="midnightblue" points="404.53,-78.2 394.24,-75.66 400.7,-84.06 404.53,-78.2"/>
</g>
<!-- Node11&#45;&gt;Node7 -->
<g id="edge13" class="edge">
<title>Node11&#45;&gt;Node7</title>
<path fill="none" stroke="midnightblue" d="M468.25,-112.32C463.13,-95.97 452.33,-69.61 433,-56 354.25,-0.55 312.93,-33.73 213.36,-20.09"/>
<polygon fill="midnightblue" stroke="midnightblue" points="213.62,-16.59 203.21,-18.56 212.58,-23.51 213.62,-16.59"/>
</g>
<!-- Node11&#45;&gt;Node10 -->
<g id="edge12" class="edge">
<title>Node11&#45;&gt;Node10</title>
<path fill="none" stroke="midnightblue" d="M474.33,-112.34C477.75,-91.53 484.15,-52.66 487.94,-29.58"/>
<polygon fill="midnightblue" stroke="midnightblue" points="491.4,-30.1 489.57,-19.67 484.5,-28.97 491.4,-30.1"/>
</g>
<!-- Node13&#45;&gt;Node4 -->
<g id="edge17" class="edge">
<title>Node13&#45;&gt;Node4</title>
<path fill="none" stroke="midnightblue" d="M358.11,-112.4C362.29,-104.11 367.61,-93.55 372.07,-84.71"/>
<polygon fill="midnightblue" stroke="midnightblue" points="375.26,-86.16 376.63,-75.66 369.01,-83.01 375.26,-86.16"/>
</g>
<!-- Node15&#45;&gt;Node12 -->
<g id="edge55" class="edge">
<title>Node15&#45;&gt;Node12</title>
<path fill="none" stroke="midnightblue" d="M1342.08,-190.99C1218.88,-186.16 965.99,-173.22 754,-143 746.59,-141.94 738.77,-140.56 731.18,-139.07"/>
<polygon fill="midnightblue" stroke="midnightblue" points="731.87,-135.64 721.37,-137.07 730.47,-142.5 731.87,-135.64"/>
</g>
<!-- Node16 -->
<g id="node16" class="node">
<title>Node16</title>
<g id="a_node16"><a xlink:title=" ">
<polygon fill="white" stroke="#bfbfbf" points="1319,-0.5 1319,-19.5 1363,-19.5 1363,-0.5 1319,-0.5"/>
<text text-anchor="middle" x="1341" y="-7.5" font-family="Helvetica,sans-Serif" font-size="10.00">string</text>
</a>
</g>
</g>
<!-- Node15&#45;&gt;Node16 -->
<g id="edge21" class="edge">
<title>Node15&#45;&gt;Node16</title>
<path fill="none" stroke="midnightblue" d="M1342.23,-186.82C1166.48,-170.34 738.8,-125.51 698,-76 692.35,-69.14 691.94,-62.5 698,-56 739.94,-11.02 1184.04,-10.11 1308.65,-10.75"/>
<polygon fill="midnightblue" stroke="midnightblue" points="1308.7,-14.25 1318.72,-10.81 1308.74,-7.25 1308.7,-14.25"/>
</g>
<!-- Node17 -->
<g id="node17" class="node">
<title>Node17</title>
<g id="a_node17"><a xlink:title=" ">
<polygon fill="white" stroke="#bfbfbf" points="1219.5,-56.5 1219.5,-75.5 1312.5,-75.5 1312.5,-56.5 1219.5,-56.5"/>
<text text-anchor="middle" x="1266" y="-63.5" font-family="Helvetica,sans-Serif" font-size="10.00">unordered_map</text>
</a>
</g>
</g>
<!-- Node15&#45;&gt;Node17 -->
<g id="edge22" class="edge">
<title>Node15&#45;&gt;Node17</title>
<path fill="none" stroke="midnightblue" d="M1406.62,-184.81C1381.3,-163.59 1316.09,-108.96 1284.16,-82.22"/>
<polygon fill="midnightblue" stroke="midnightblue" points="1286.36,-79.49 1276.45,-75.76 1281.87,-84.86 1286.36,-79.49"/>
</g>
<!-- Node18 -->
<g id="node18" class="node">
<title>Node18</title>
<g id="a_node18"><a xlink:href="_field_desc_types_8_h.html" target="_top" xlink:title=" ">
<polygon fill="white" stroke="black" points="1749,-0.5 1749,-19.5 1925,-19.5 1925,-0.5 1749,-0.5"/>
<text text-anchor="middle" x="1837" y="-7.5" font-family="Helvetica,sans-Serif" font-size="10.00">amr&#45;wind/core/FieldDescTypes.H</text>
</a>
</g>
</g>
<!-- Node15&#45;&gt;Node18 -->
<g id="edge23" class="edge">
<title>Node15&#45;&gt;Node18</title>
<path fill="none" stroke="midnightblue" d="M1491.78,-190.89C1602.89,-186.14 1817.82,-173.57 1998,-143 2116.92,-122.82 2186.98,-171.24 2261,-76 2266.45,-68.98 2266.94,-62.61 2261,-56 2258.28,-52.97 2058.78,-32.83 1934.43,-20.54"/>
<polygon fill="midnightblue" stroke="midnightblue" points="1934.43,-17.02 1924.13,-19.52 1933.74,-23.99 1934.43,-17.02"/>
</g>
<!-- Node19 -->
<g id="node19" class="node">
<title>Node19</title>
<g id="a_node19"><a xlink:href="_field_utils_8_h.html" target="_top" xlink:title=" ">
<polygon fill="white" stroke="black" points="1855,-56.5 1855,-75.5 2001,-75.5 2001,-56.5 1855,-56.5"/>
<text text-anchor="middle" x="1928" y="-63.5" font-family="Helvetica,sans-Serif" font-size="10.00">amr&#45;wind/core/FieldUtils.H</text>
</a>
</g>
</g>
<!-- Node15&#45;&gt;Node19 -->
<g id="edge24" class="edge">
<title>Node15&#45;&gt;Node19</title>
<path fill="none" stroke="midnightblue" d="M1453.99,-184.93C1496.51,-175.03 1568.37,-158.16 1630,-143 1721.22,-120.56 1827.81,-93.07 1885.55,-78.07"/>
<polygon fill="midnightblue" stroke="midnightblue" points="1886.62,-81.41 1895.41,-75.5 1884.86,-74.63 1886.62,-81.41"/>
</g>
<!-- Node20 -->
<g id="node20" class="node">
<title>Node20</title>
<g id="a_node20"><a xlink:title=" ">
<polygon fill="white" stroke="#bfbfbf" points="1621.5,-0.5 1621.5,-19.5 1730.5,-19.5 1730.5,-0.5 1621.5,-0.5"/>
<text text-anchor="middle" x="1676" y="-7.5" font-family="Helvetica,sans-Serif" font-size="10.00">AMReX_MultiFab.H</text>
</a>
</g>
</g>
<!-- Node15&#45;&gt;Node20 -->
<g id="edge56" class="edge">
<title>Node15&#45;&gt;Node20</title>
<path fill="none" stroke="midnightblue" d="M1415.17,-184.98C1410.58,-161.03 1401.25,-92.46 1436,-56 1459.55,-31.29 1548.44,-19.86 1611.15,-14.78"/>
<polygon fill="midnightblue" stroke="midnightblue" points="1611.66,-18.25 1621.36,-13.99 1611.12,-11.27 1611.66,-18.25"/>
</g>
<!-- Node22 -->
<g id="node22" class="node">
<title>Node22</title>
<g id="a_node22"><a xlink:href="_field_8_h.html" target="_top" xlink:title=" ">
<polygon fill="white" stroke="black" points="1051,-118 1051,-137 1175,-137 1175,-118 1051,-118"/>
<text text-anchor="middle" x="1113" y="-125" font-family="Helvetica,sans-Serif" font-size="10.00">amr&#45;wind/core/Field.H</text>
</a>
</g>
</g>
<!-- Node15&#45;&gt;Node22 -->
<g id="edge28" class="edge">
<title>Node15&#45;&gt;Node22</title>
<path fill="none" stroke="midnightblue" d="M1376.94,-184.94C1321.92,-173.17 1222.99,-152.02 1163.13,-139.22"/>
<polygon fill="midnightblue" stroke="midnightblue" points="1163.65,-135.75 1153.14,-137.08 1162.19,-142.6 1163.65,-135.75"/>
</g>
<!-- Node29 -->
<g id="node29" class="node">
<title>Node29</title>
<g id="a_node29"><a xlink:href="_int_field_8_h.html" target="_top" xlink:title=" ">
<polygon fill="white" stroke="black" points="1483.5,-118 1483.5,-137 1620.5,-137 1620.5,-118 1483.5,-118"/>
<text text-anchor="middle" x="1552" y="-125" font-family="Helvetica,sans-Serif" font-size="10.00">amr&#45;wind/core/IntField.H</text>
</a>
</g>
</g>
<!-- Node15&#45;&gt;Node29 -->
<g id="edge43" class="edge">
<title>Node15&#45;&gt;Node29</title>
<path fill="none" stroke="midnightblue" d="M1434.93,-184.87C1457.92,-173.8 1498.03,-154.49 1524.8,-141.6"/>
<polygon fill="midnightblue" stroke="midnightblue" points="1526.51,-144.66 1534,-137.17 1523.47,-138.35 1526.51,-144.66"/>
</g>
<!-- Node30 -->
<g id="node30" class="node">
<title>Node30</title>
<g id="a_node30"><a xlink:title=" ">
<polygon fill="white" stroke="#bfbfbf" points="1445,-56.5 1445,-75.5 1557,-75.5 1557,-56.5 1445,-56.5"/>
<text text-anchor="middle" x="1501" y="-63.5" font-family="Helvetica,sans-Serif" font-size="10.00">AMReX_iMultiFab.H</text>
</a>
</g>
</g>
<!-- Node15&#45;&gt;Node30 -->
<g id="edge57" class="edge">
<title>Node15&#45;&gt;Node30</title>
<path fill="none" stroke="midnightblue" d="M1422.77,-184.81C1436.5,-164.13 1471.3,-111.73 1489.5,-84.32"/>
<polygon fill="midnightblue" stroke="midnightblue" points="1492.57,-86.02 1495.19,-75.76 1486.74,-82.15 1492.57,-86.02"/>
</g>
<!-- Node31 -->
<g id="node31" class="node">
<title>Node31</title>
<g id="a_node31"><a xlink:href="_scratch_field_8_h.html" target="_top" xlink:title=" ">
<polygon fill="white" stroke="black" points="1829,-118 1829,-137 1989,-137 1989,-118 1829,-118"/>
<text text-anchor="middle" x="1909" y="-125" font-family="Helvetica,sans-Serif" font-size="10.00">amr&#45;wind/core/ScratchField.H</text>
</a>
</g>
</g>
<!-- Node15&#45;&gt;Node31 -->
<g id="edge47" class="edge">
<title>Node15&#45;&gt;Node31</title>
<path fill="none" stroke="midnightblue" d="M1481.57,-184.97C1572.6,-172.94 1738.24,-151.06 1834.4,-138.36"/>
<polygon fill="midnightblue" stroke="midnightblue" points="1834.89,-141.82 1844.35,-137.04 1833.97,-134.88 1834.89,-141.82"/>
</g>
<!-- Node19&#45;&gt;Node18 -->
<g id="edge25" class="edge">
<title>Node19&#45;&gt;Node18</title>
<path fill="none" stroke="midnightblue" d="M1913.38,-56.32C1899.05,-47.82 1876.99,-34.73 1860.25,-24.8"/>
<polygon fill="midnightblue" stroke="midnightblue" points="1861.97,-21.75 1851.58,-19.65 1858.4,-27.77 1861.97,-21.75"/>
</g>
<!-- Node19&#45;&gt;Node20 -->
<g id="edge26" class="edge">
<title>Node19&#45;&gt;Node20</title>
<path fill="none" stroke="midnightblue" d="M1888.07,-56.44C1844.11,-47.02 1773.37,-31.87 1725.82,-21.68"/>
<polygon fill="midnightblue" stroke="midnightblue" points="1726.25,-18.19 1715.74,-19.52 1724.79,-25.03 1726.25,-18.19"/>
</g>
<!-- Node21 -->
<g id="node21" class="node">
<title>Node21</title>
<g id="a_node21"><a xlink:title=" ">
<polygon fill="white" stroke="#bfbfbf" points="2059,-0.5 2059,-19.5 2183,-19.5 2183,-0.5 2059,-0.5"/>
<text text-anchor="middle" x="2121" y="-7.5" font-family="Helvetica,sans-Serif" font-size="10.00">AMReX_Interpolater.H</text>
</a>
</g>
</g>
<!-- Node19&#45;&gt;Node21 -->
<g id="edge27" class="edge">
<title>Node19&#45;&gt;Node21</title>
<path fill="none" stroke="midnightblue" d="M1958.58,-56.44C1991.61,-47.2 2044.39,-32.44 2080.77,-22.26"/>
<polygon fill="midnightblue" stroke="midnightblue" points="2081.87,-25.58 2090.56,-19.52 2079.99,-18.84 2081.87,-25.58"/>
</g>
<!-- Node22&#45;&gt;Node4 -->
<g id="edge35" class="edge">
<title>Node22&#45;&gt;Node4</title>
<path fill="none" stroke="midnightblue" d="M1050.91,-121.45C909.91,-109.99 567.55,-82.16 434.83,-71.38"/>
<polygon fill="midnightblue" stroke="midnightblue" points="434.77,-67.86 424.52,-70.54 434.2,-74.84 434.77,-67.86"/>
</g>
<!-- Node22&#45;&gt;Node16 -->
<g id="edge29" class="edge">
<title>Node22&#45;&gt;Node16</title>
<path fill="none" stroke="midnightblue" d="M1050.66,-125.38C971.06,-121.84 848.92,-108.09 896,-56 923.6,-25.46 1210.8,-14.64 1308.6,-11.82"/>
<polygon fill="midnightblue" stroke="midnightblue" points="1308.88,-15.32 1318.77,-11.54 1308.68,-8.32 1308.88,-15.32"/>
</g>
<!-- Node22&#45;&gt;Node17 -->
<g id="edge31" class="edge">
<title>Node22&#45;&gt;Node17</title>
<path fill="none" stroke="midnightblue" d="M1134.92,-117.98C1161.05,-107.81 1204.91,-90.76 1234.63,-79.2"/>
<polygon fill="midnightblue" stroke="midnightblue" points="1236.07,-82.4 1244.12,-75.51 1233.53,-75.87 1236.07,-82.4"/>
</g>
<!-- Node22&#45;&gt;Node18 -->
<g id="edge37" class="edge">
<title>Node22&#45;&gt;Node18</title>
<path fill="none" stroke="midnightblue" d="M1146.73,-117.93C1205.24,-103.34 1329.53,-73.55 1436,-56 1492.89,-46.63 1642.39,-30.7 1741.9,-20.53"/>
<polygon fill="midnightblue" stroke="midnightblue" points="1742.38,-24 1751.97,-19.5 1741.67,-17.03 1742.38,-24"/>
</g>
<!-- Node22&#45;&gt;Node20 -->
<g id="edge33" class="edge">
<title>Node22&#45;&gt;Node20</title>
<path fill="none" stroke="midnightblue" d="M1121.5,-117.9C1137.42,-102.41 1173.54,-70.1 1211,-56 1282.51,-29.08 1500.66,-17.41 1610.85,-13.12"/>
<polygon fill="midnightblue" stroke="midnightblue" points="1611.31,-16.61 1621.17,-12.73 1611.04,-9.61 1611.31,-16.61"/>
</g>
<!-- Node23 -->
<g id="node23" class="node">
<title>Node23</title>
<g id="a_node23"><a xlink:title=" ">
<polygon fill="white" stroke="#bfbfbf" points="905,-56.5 905,-75.5 963,-75.5 963,-56.5 905,-56.5"/>
<text text-anchor="middle" x="934" y="-63.5" font-family="Helvetica,sans-Serif" font-size="10.00">memory</text>
</a>
</g>
</g>
<!-- Node22&#45;&gt;Node23 -->
<g id="edge30" class="edge">
<title>Node22&#45;&gt;Node23</title>
<path fill="none" stroke="midnightblue" d="M1087.35,-117.98C1056.38,-107.68 1004.13,-90.31 969.35,-78.75"/>
<polygon fill="midnightblue" stroke="midnightblue" points="970.19,-75.34 959.6,-75.51 967.98,-81.98 970.19,-75.34"/>
</g>
<!-- Node24 -->
<g id="node24" class="node">
<title>Node24</title>
<g id="a_node24"><a xlink:title=" ">
<polygon fill="white" stroke="#bfbfbf" points="981,-56.5 981,-75.5 1045,-75.5 1045,-56.5 981,-56.5"/>
<text text-anchor="middle" x="1013" y="-63.5" font-family="Helvetica,sans-Serif" font-size="10.00">algorithm</text>
</a>
</g>
</g>
<!-- Node22&#45;&gt;Node24 -->
<g id="edge32" class="edge">
<title>Node22&#45;&gt;Node24</title>
<path fill="none" stroke="midnightblue" d="M1098.67,-117.98C1082.34,-108.25 1055.4,-92.23 1036.09,-80.74"/>
<polygon fill="midnightblue" stroke="midnightblue" points="1037.68,-77.61 1027.3,-75.51 1034.11,-83.63 1037.68,-77.61"/>
</g>
<!-- Node25 -->
<g id="node25" class="node">
<title>Node25</title>
<g id="a_node25"><a xlink:title=" ">
<polygon fill="white" stroke="#bfbfbf" points="1063.5,-56.5 1063.5,-75.5 1162.5,-75.5 1162.5,-56.5 1063.5,-56.5"/>
<text text-anchor="middle" x="1113" y="-63.5" font-family="Helvetica,sans-Serif" font-size="10.00">AMReX_BCRec.H</text>
</a>
</g>
</g>
<!-- Node22&#45;&gt;Node25 -->
<g id="edge34" class="edge">
<title>Node22&#45;&gt;Node25</title>
<path fill="none" stroke="midnightblue" d="M1113,-117.98C1113,-109.58 1113,-96.48 1113,-85.66"/>
<polygon fill="midnightblue" stroke="midnightblue" points="1116.5,-85.51 1113,-75.51 1109.5,-85.51 1116.5,-85.51"/>
</g>
<!-- Node26 -->
<g id="node26" class="node">
<title>Node26</title>
<g id="a_node26"><a xlink:href="incflo__enums_8_h.html" target="_top" xlink:title=" ">
<polygon fill="white" stroke="black" points="707.5,-56.5 707.5,-75.5 848.5,-75.5 848.5,-56.5 707.5,-56.5"/>
<text text-anchor="middle" x="778" y="-63.5" font-family="Helvetica,sans-Serif" font-size="10.00">amr&#45;wind/incflo_enums.H</text>
</a>
</g>
</g>
<!-- Node22&#45;&gt;Node26 -->
<g id="edge36" class="edge">
<title>Node22&#45;&gt;Node26</title>
<path fill="none" stroke="midnightblue" d="M1065,-117.98C1004.55,-107.24 900.77,-88.81 835.96,-77.29"/>
<polygon fill="midnightblue" stroke="midnightblue" points="836.37,-73.81 825.91,-75.51 835.14,-80.7 836.37,-73.81"/>
</g>
<!-- Node27 -->
<g id="node27" class="node">
<title>Node27</title>
<g id="a_node27"><a xlink:href="_view_field_8_h.html" target="_top" xlink:title=" ">
<polygon fill="white" stroke="black" points="1613,-56.5 1613,-75.5 1761,-75.5 1761,-56.5 1613,-56.5"/>
<text text-anchor="middle" x="1687" y="-63.5" font-family="Helvetica,sans-Serif" font-size="10.00">amr&#45;wind/core/ViewField.H</text>
</a>
</g>
</g>
<!-- Node22&#45;&gt;Node27 -->
<g id="edge38" class="edge">
<title>Node22&#45;&gt;Node27</title>
<path fill="none" stroke="midnightblue" d="M1175.25,-120.05C1278.74,-109.32 1486.33,-87.8 1602.8,-75.73"/>
<polygon fill="midnightblue" stroke="midnightblue" points="1603.16,-79.21 1612.74,-74.7 1602.43,-72.25 1603.16,-79.21"/>
</g>
<!-- Node27&#45;&gt;Node16 -->
<g id="edge39" class="edge">
<title>Node27&#45;&gt;Node16</title>
<path fill="none" stroke="midnightblue" d="M1632.18,-56.44C1559.19,-45.05 1432.46,-25.27 1373.24,-16.03"/>
<polygon fill="midnightblue" stroke="midnightblue" points="1373.75,-12.57 1363.33,-14.48 1372.67,-19.48 1373.75,-12.57"/>
</g>
<!-- Node27&#45;&gt;Node18 -->
<g id="edge40" class="edge">
<title>Node27&#45;&gt;Node18</title>
<path fill="none" stroke="midnightblue" d="M1710.77,-56.44C1735.89,-47.4 1775.71,-33.06 1803.9,-22.92"/>
<polygon fill="midnightblue" stroke="midnightblue" points="1805.12,-26.2 1813.34,-19.52 1802.75,-19.61 1805.12,-26.2"/>
</g>
<!-- Node27&#45;&gt;Node20 -->
<g id="edge41" class="edge">
<title>Node27&#45;&gt;Node20</title>
<path fill="none" stroke="midnightblue" d="M1685.18,-56.08C1683.73,-48.93 1681.63,-38.64 1679.81,-29.69"/>
<polygon fill="midnightblue" stroke="midnightblue" points="1683.21,-28.85 1677.78,-19.75 1676.35,-30.25 1683.21,-28.85"/>
</g>
<!-- Node28 -->
<g id="node28" class="node">
<title>Node28</title>
<g id="a_node28"><a xlink:title=" ">
<polygon fill="white" stroke="#bfbfbf" points="1943,-0.5 1943,-19.5 2041,-19.5 2041,-0.5 1943,-0.5"/>
<text text-anchor="middle" x="1992" y="-7.5" font-family="Helvetica,sans-Serif" font-size="10.00">AMReX_Vector.H</text>
</a>
</g>
</g>
<!-- Node27&#45;&gt;Node28 -->
<g id="edge42" class="edge">
<title>Node27&#45;&gt;Node28</title>
<path fill="none" stroke="midnightblue" d="M1735.33,-56.44C1789.2,-46.9 1876.31,-31.48 1933.86,-21.29"/>
<polygon fill="midnightblue" stroke="midnightblue" points="1934.66,-24.71 1943.9,-19.52 1933.44,-17.81 1934.66,-24.71"/>
</g>
<!-- Node29&#45;&gt;Node16 -->
<g id="edge44" class="edge">
<title>Node29&#45;&gt;Node16</title>
<path fill="none" stroke="midnightblue" d="M1528.72,-117.87C1504.85,-108.68 1466.94,-93.12 1436,-76 1408.37,-60.72 1378.67,-39.54 1359.97,-25.57"/>
<polygon fill="midnightblue" stroke="midnightblue" points="1362.05,-22.76 1351.96,-19.52 1357.83,-28.34 1362.05,-22.76"/>
</g>
<!-- Node29&#45;&gt;Node18 -->
<g id="edge45" class="edge">
<title>Node29&#45;&gt;Node18</title>
<path fill="none" stroke="midnightblue" d="M1620.71,-120.21C1665.41,-113.86 1723.78,-101.19 1770,-76 1792.13,-63.94 1812.09,-42.55 1824.36,-27.62"/>
<polygon fill="midnightblue" stroke="midnightblue" points="1827.18,-29.7 1830.65,-19.69 1821.69,-25.35 1827.18,-29.7"/>
</g>
<!-- Node29&#45;&gt;Node30 -->
<g id="edge46" class="edge">
<title>Node29&#45;&gt;Node30</title>
<path fill="none" stroke="midnightblue" d="M1544.69,-117.98C1536.97,-108.96 1524.59,-94.52 1514.98,-83.31"/>
<polygon fill="midnightblue" stroke="midnightblue" points="1517.46,-80.82 1508.29,-75.51 1512.14,-85.38 1517.46,-80.82"/>
</g>
<!-- Node31&#45;&gt;Node16 -->
<g id="edge48" class="edge">
<title>Node31&#45;&gt;Node16</title>
<path fill="none" stroke="midnightblue" d="M1828.95,-120.3C1766.43,-113.79 1678.02,-100.88 1604,-76 1585.91,-69.92 1583.99,-62.38 1566,-56 1499.75,-32.5 1417.94,-20.01 1373.49,-14.53"/>
<polygon fill="midnightblue" stroke="midnightblue" points="1373.63,-11.02 1363.28,-13.31 1372.8,-17.97 1373.63,-11.02"/>
</g>
<!-- Node31&#45;&gt;Node18 -->
<g id="edge50" class="edge">
<title>Node31&#45;&gt;Node18</title>
<path fill="none" stroke="midnightblue" d="M1942.41,-117.91C1979.79,-106.67 2032.37,-84.93 2010,-56 1997.59,-39.95 1952.75,-28.56 1911.83,-21.25"/>
<polygon fill="midnightblue" stroke="midnightblue" points="1912.25,-17.78 1901.81,-19.53 1911.07,-24.67 1912.25,-17.78"/>
</g>
<!-- Node31&#45;&gt;Node20 -->
<g id="edge52" class="edge">
<title>Node31&#45;&gt;Node20</title>
<path fill="none" stroke="midnightblue" d="M1892.37,-117.91C1866.36,-104.51 1814.42,-77.89 1770,-56 1747.61,-44.97 1722.06,-32.76 1703.25,-23.84"/>
<polygon fill="midnightblue" stroke="midnightblue" points="1704.62,-20.62 1694.08,-19.5 1701.62,-26.95 1704.62,-20.62"/>
</g>
<!-- Node31&#45;&gt;Node27 -->
<g id="edge51" class="edge">
<title>Node31&#45;&gt;Node27</title>
<path fill="none" stroke="midnightblue" d="M1877.19,-117.98C1838.12,-107.5 1771.74,-89.71 1728.64,-78.16"/>
<polygon fill="midnightblue" stroke="midnightblue" points="1729.31,-74.72 1718.75,-75.51 1727.5,-81.48 1729.31,-74.72"/>
</g>
<!-- Node31&#45;&gt;Node28 -->
<g id="edge53" class="edge">
<title>Node31&#45;&gt;Node28</title>
<path fill="none" stroke="midnightblue" d="M1989.03,-126.67C2081.83,-124.97 2226.53,-115.77 2261,-76 2266.82,-69.28 2266.74,-62.78 2261,-56 2259.3,-53.99 2130.25,-33.07 2051.53,-20.48"/>
<polygon fill="midnightblue" stroke="midnightblue" points="2051.68,-16.96 2041.25,-18.83 2050.57,-23.87 2051.68,-16.96"/>
</g>
<!-- Node32 -->
<g id="node32" class="node">
<title>Node32</title>
<g id="a_node32"><a xlink:title=" ">
<polygon fill="white" stroke="#bfbfbf" points="2057.5,-56.5 2057.5,-75.5 2102.5,-75.5 2102.5,-56.5 2057.5,-56.5"/>
<text text-anchor="middle" x="2080" y="-63.5" font-family="Helvetica,sans-Serif" font-size="10.00">utility</text>
</a>
</g>
</g>
<!-- Node31&#45;&gt;Node32 -->
<g id="edge49" class="edge">
<title>Node31&#45;&gt;Node32</title>
<path fill="none" stroke="midnightblue" d="M1933.5,-117.98C1963.55,-107.52 2014.56,-89.77 2047.76,-78.22"/>
<polygon fill="midnightblue" stroke="midnightblue" points="2049.16,-81.44 2057.45,-74.85 2046.86,-74.83 2049.16,-81.44"/>
</g>
<!-- Node33 -->
<g id="node33" class="node">
<title>Node33</title>
<g id="a_node33"><a xlink:title=" ">
<polygon fill="white" stroke="#bfbfbf" points="2120.5,-56.5 2120.5,-75.5 2251.5,-75.5 2251.5,-56.5 2120.5,-56.5"/>
<text text-anchor="middle" x="2186" y="-63.5" font-family="Helvetica,sans-Serif" font-size="10.00">AMReX_PhysBCFunct.H</text>
</a>
</g>
</g>
<!-- Node31&#45;&gt;Node33 -->
<g id="edge54" class="edge">
<title>Node31&#45;&gt;Node33</title>
<path fill="none" stroke="midnightblue" d="M1948.69,-117.98C1998.16,-107.35 2082.72,-89.18 2136.41,-77.65"/>
<polygon fill="midnightblue" stroke="midnightblue" points="2137.34,-81.03 2146.39,-75.51 2135.87,-74.19 2137.34,-81.03"/>
</g>
</g>
</svg>
        <g id="navigator" transform="translate(0 0)" fill="#404254">
                <rect fill="#f2f5e9" fill-opacity="0.5" stroke="#606060" stroke-width=".5" x="0" y="0" width="60" height="60"/>
                <use id="zoomplus" xlink:href="#zoomPlus" x="17" y="9" onmousedown="handleZoom(evt,'in')"/>
                <use id="zoomminus" xlink:href="#zoomMin" x="42" y="9" onmousedown="handleZoom(evt,'out')"/>
                <use id="reset" xlink:href="#resetDef" x="30" y="36" onmousedown="handleReset()"/>
                <g id="arrowUp" xlink:href="#dirArrow" transform="translate(30 24)" onmousedown="handlePan(0,-1)">
                  <use xlink:href="#rim" fill="#404040">
                        <set attributeName="fill" to="#808080" begin="arrowUp.mouseover" end="arrowUp.mouseout"/>
                  </use>
                  <path fill="none" stroke="white" stroke-width="1.5" d="M0,-3.0v7 M-2.5,-0.5L0,-3.0L2.5,-0.5"/>
                </g>
                <g id="arrowRight" xlink:href="#dirArrow" transform="rotate(90) translate(36 -43)" onmousedown="handlePan(1,0)">
                  <use xlink:href="#rim" fill="#404040">
                        <set attributeName="fill" to="#808080" begin="arrowRight.mouseover" end="arrowRight.mouseout"/>
                  </use>
                  <path fill="none" stroke="white" stroke-width="1.5" d="M0,-3.0v7 M-2.5,-0.5L0,-3.0L2.5,-0.5"/>
                </g>
                <g id="arrowDown" xlink:href="#dirArrow" transform="rotate(180) translate(-30 -48)" onmousedown="handlePan(0,1)">
                  <use xlink:href="#rim" fill="#404040">
                        <set attributeName="fill" to="#808080" begin="arrowDown.mouseover" end="arrowDown.mouseout"/>
                  </use>
                  <path fill="none" stroke="white" stroke-width="1.5" d="M0,-3.0v7 M-2.5,-0.5L0,-3.0L2.5,-0.5"/>
                </g>
                <g id="arrowLeft" xlink:href="#dirArrow" transform="rotate(270) translate(-36 17)" onmousedown="handlePan(-1,0)">
                  <use xlink:href="#rim" fill="#404040">
                        <set attributeName="fill" to="#808080" begin="arrowLeft.mouseover" end="arrowLeft.mouseout"/>
                  </use>
                  <path fill="none" stroke="white" stroke-width="1.5" d="M0,-3.0v7 M-2.5,-0.5L0,-3.0L2.5,-0.5"/>
                </g>
        </g>
        <svg viewBox="0 0 15 15" width="100%" height="30px" preserveAspectRatio="xMaxYMin meet">
         <g id="arrow_out" transform="scale(0.3 0.3)">
          <a xlink:href="disk__spreading_8_h__incl_org.svg" target="_base">
           <rect id="button" ry="5" rx="5" y="6" x="6" height="38" width="38"
                fill="#f2f5e9" fill-opacity="0.5" stroke="#606060" stroke-width="1.0"/>
           <path id="arrow"
             d="M 11.500037,31.436501 C 11.940474,20.09759 22.043105,11.32322 32.158766,21.979434 L 37.068811,17.246167 C 37.068811,17.246167 37.088388,32 37.088388,32 L 22.160133,31.978069 C 22.160133,31.978069 26.997745,27.140456 26.997745,27.140456 C 18.528582,18.264221 13.291696,25.230495 11.500037,31.436501 z"
             style="fill:#404040;"/>
          </a>
         </g>
        </svg>
</svg>
